<?xml version="1.0" encoding="UTF-8"?>
<svg width="183px" height="83px" viewBox="0 0 183 83" version="1.1" xmlns="http://www.w3.org/2000/svg" xmlns:xlink="http://www.w3.org/1999/xlink">
    <!-- Generator: Sketch 59.1 (86144) - https://sketch.com -->
    <title>Combined Shape Copy</title>
    <desc>Created with Sketch.</desc>
    <g id="redesign" stroke="none" stroke-width="1" fill="none" fill-rule="evenodd">
        <g id="about" transform="translate(-162.000000, -545.000000)" fill="#FFFFFF" fill-rule="nonzero">
            <path d="M332.686518,603 C338.594241,603 341.89856,605.439024 342.299084,610.723577 L335.289921,610.723577 C335.123037,609.233062 334.288613,608.386179 332.686518,608.386179 C331.117801,608.386179 330.316754,609.097561 330.316754,610.147696 C330.316754,611.299458 331.01767,611.841463 333.65445,612.180217 C339.662304,612.823848 343,614.382114 343,619.768293 C343,624.273713 339.528796,628 333.120419,628 C326.378272,628 322.77356,625.256098 322.606675,619.802168 L329.782723,619.802168 C329.91623,621.326558 330.650524,622.579946 333.120419,622.579946 C334.889398,622.579946 335.757199,621.766938 335.757199,620.581301 C335.757199,619.294038 334.922775,618.887534 332.352749,618.514905 C325.477094,617.735772 323.140707,615.703252 323.140707,610.723577 C323.140707,606.252033 326.745419,603 332.686518,603 Z M257.521597,603.338753 L257.521597,609.266938 L248.576571,609.266938 L248.576571,613.772358 L255.785995,613.772358 L255.785995,619.429539 L248.576571,619.429539 L248.576571,627.559621 L241,627.559621 L241,603.338753 L257.521597,603.338753 Z M268.268979,603.338753 L268.268979,627.559621 L260.625654,627.559621 L260.625654,603.338753 L268.268979,603.338753 Z M280.318063,603.338753 L280.318063,621.631436 L288.996073,621.631436 L288.996073,627.559621 L272.741492,627.559621 L272.741492,603.338753 L280.318063,603.338753 Z M301.979712,603.338753 L306.018325,615.093496 L310.123691,603.338753 L319.736257,603.338753 L319.736257,627.559621 L312.22644,627.559621 L312.22644,613.264228 L306.785995,627.559621 L304.249346,627.559621 L298.909031,613.264228 L298.909031,627.559621 L292.166885,627.559621 L292.166885,603.338753 L301.979712,603.338753 Z M250.781326,574.033829 C256.697852,574.033829 260.007096,576.469553 260.408217,581.746955 L253.388609,581.746955 C253.221475,580.258457 252.385808,579.41272 250.781326,579.41272 C249.210271,579.41272 248.40803,580.123139 248.40803,581.171854 C248.40803,582.322057 249.109991,582.863329 251.7507,583.201624 C257.767507,583.844384 261.110177,585.400541 261.110177,590.779432 C261.110177,595.278755 257.6338,599 251.215873,599 C244.463679,599 240.853595,596.259811 240.686461,590.813261 L247.873203,590.813261 C248.006909,592.335589 248.742297,593.58728 251.215873,593.58728 C252.987488,593.58728 253.856583,592.775372 253.856583,591.59134 C253.856583,590.305819 253.020915,589.899865 250.447059,589.52774 C243.561158,588.749662 241.221289,586.719892 241.221289,581.746955 C241.221289,577.281461 244.831373,574.033829 250.781326,574.033829 Z M275.550514,574 C282.904388,574 288.386368,578.499323 288.386368,586.14479 L288.386368,586.415426 C288.386368,593.959405 283.272082,599 275.416807,599 C267.594958,599 262.781513,593.959405 262.781513,586.618403 L262.781513,586.347767 C262.781513,578.871448 268.397199,574 275.550514,574 Z M179.315033,574.372124 L186.802614,598.560217 L178.780205,598.560217 L177.677124,594.534506 L170.122689,594.534506 L169.053035,598.560217 L162,598.560217 L169.521008,574.372124 L179.315033,574.372124 Z M340.465173,574.372124 L340.465173,580.258457 L331.038842,580.258457 L331.038842,583.675237 L338.526424,583.675237 L338.526424,589.054127 L331.038842,589.054127 L331.038842,592.673884 L341,592.673884 L341,598.560217 L323.484407,598.560217 L323.484407,574.372124 L340.465173,574.372124 Z M193.421102,574.372124 L196.162092,588.817321 L199.036788,574.372124 L205.621849,574.372124 L208.864239,588.986468 L211.772362,574.372124 L218.79197,574.372124 L213.243137,598.560217 L205.588422,598.560217 L202.245752,584.11502 L198.869655,598.560217 L191.315219,598.560217 L185.766387,574.372124 L193.421102,574.372124 Z M238.313165,574.372124 L238.313165,580.258457 L228.886835,580.258457 L228.886835,583.675237 L236.374416,583.675237 L236.374416,589.054127 L228.886835,589.054127 L228.886835,592.673884 L238.847993,592.673884 L238.847993,598.560217 L221.3324,598.560217 L221.3324,574.372124 L238.313165,574.372124 Z M301.289076,574.372124 L305.333707,586.110961 L309.445191,574.372124 L319.072082,574.372124 L319.072082,598.560217 L311.551074,598.560217 L311.551074,584.284168 L306.102521,598.560217 L303.562092,598.560217 L298.213819,584.284168 L298.213819,598.560217 L291.461625,598.560217 L291.461625,574.372124 L301.289076,574.372124 Z M275.550514,579.987821 C272.608964,579.987821 270.703641,582.186739 270.703641,586.313938 L270.703641,586.584574 C270.703641,590.711773 272.608964,592.978349 275.617367,592.978349 C278.592344,592.978349 280.497666,590.610284 280.497666,586.584574 L280.497666,586.313938 C280.497666,582.220568 278.558917,579.987821 275.550514,579.987821 Z M173.933333,580.562923 L171.560037,589.324763 L176.273203,589.324763 L173.933333,580.562923 Z M301.862025,545 L305.920886,556.647552 L310.046835,545 L319.707595,545 L319.707595,569 L312.160127,569 L312.160127,554.834965 L306.692405,569 L304.143038,569 L298.775949,554.834965 L298.775949,569 L292,569 L292,545 L301.862025,545 Z M330.374684,545 L334.031013,552.518881 L337.720886,545 L345,545 L337.553165,558.728671 L337.553165,569 L329.905063,569 L329.905063,558.762238 L322.122785,545 L330.374684,545 Z" id="Combined-Shape-Copy"></path>
        </g>
    </g>
</svg>