<?xml version="1.0" encoding="UTF-8"?>
<svg width="14px" height="43px" viewBox="0 0 14 43" version="1.1" xmlns="http://www.w3.org/2000/svg" xmlns:xlink="http://www.w3.org/1999/xlink">
    <!-- Generator: Sketch 54.1 (76490) - https://sketchapp.com -->
    <title>logo</title>
    <desc>Created with Sketch.</desc>
    <g id="redesign" stroke="none" stroke-width="1" fill="none" fill-rule="evenodd">
        <g id="poster_01" transform="translate(-331.000000, -585.000000)" fill="#000000" fill-rule="nonzero">
            <g id="logo" transform="translate(331.000000, 585.000000)">
                <path d="M0,12.1186441 L0,-1.27009514e-13 L4.98305085,-1.27009514e-13 L7.00015828,5.88135593 L9.11864407,-1.27009514e-13 L14,-1.27009514e-13 L14,12.1186441 L10.1864407,12.1186441 L10.1864407,4.96610169 L7.64422607,12.1186441 L6.35609048,12.1186441 L3.42372881,4.96610169 L3.42372881,12.1186441 L0,12.1186441 Z M0,27.2372881 L0,15.1186441 L4.98305085,15.1186441 L7.00015828,21 L9.11864407,15.1186441 L14,15.1186441 L14,27.2372881 L10.1864407,27.2372881 L10.1864407,20.0847458 L7.64422607,27.2372881 L6.35609048,27.2372881 L3.42372881,20.0847458 L3.42372881,27.2372881 L0,27.2372881 Z M0,42.3559322 L0,30.2372881 L4.98305085,30.2372881 L7.00015828,36.1186441 L9.11864407,30.2372881 L14,30.2372881 L14,42.3559322 L10.1864407,42.3559322 L10.1864407,35.2033898 L7.64422607,42.3559322 L6.35609048,42.3559322 L3.42372881,35.2033898 L3.42372881,42.3559322 L0,42.3559322 Z" id="Combined-Shape-Copy"></path>
            </g>
        </g>
    </g>
</svg>